<mxfile host="app.diagrams.net" modified="2023-03-01T13:16:01.147Z" agent="5.0 (Windows)" etag="ckPT2DgdIO7svZtyvrvB" version="20.8.23" type="github">
  <diagram id="C5RBs43oDa-KdzZeNtuy" name="Page-1">
    <mxGraphModel dx="956" dy="521" grid="1" gridSize="10" guides="1" tooltips="1" connect="1" arrows="1" fold="1" page="1" pageScale="1" pageWidth="827" pageHeight="1169" math="0" shadow="0">
      <root>
        <mxCell id="WIyWlLk6GJQsqaUBKTNV-0" />
        <mxCell id="WIyWlLk6GJQsqaUBKTNV-1" parent="WIyWlLk6GJQsqaUBKTNV-0" />
        <mxCell id="07Qvbf6R7t-C7HyKxWoE-3" value="start" style="ellipse;whiteSpace=wrap;html=1;shadow=0;sketch=1;strokeColor=#000000;strokeWidth=1;" vertex="1" parent="WIyWlLk6GJQsqaUBKTNV-1">
          <mxGeometry x="354" y="90" width="120" height="80" as="geometry" />
        </mxCell>
        <mxCell id="07Qvbf6R7t-C7HyKxWoE-4" value="&lt;div&gt;a= coś&lt;/div&gt;&lt;div&gt;b= coś&lt;br&gt;&lt;/div&gt;&lt;div&gt;a+b&lt;/div&gt;" style="rounded=1;whiteSpace=wrap;html=1;shadow=0;sketch=1;strokeColor=#000000;strokeWidth=1;" vertex="1" parent="WIyWlLk6GJQsqaUBKTNV-1">
          <mxGeometry x="354" y="209" width="120" height="60" as="geometry" />
        </mxCell>
        <mxCell id="07Qvbf6R7t-C7HyKxWoE-5" value="" style="endArrow=none;html=1;rounded=0;entryX=0.5;entryY=1;entryDx=0;entryDy=0;" edge="1" parent="WIyWlLk6GJQsqaUBKTNV-1" source="07Qvbf6R7t-C7HyKxWoE-4" target="07Qvbf6R7t-C7HyKxWoE-3">
          <mxGeometry width="50" height="50" relative="1" as="geometry">
            <mxPoint x="300" y="300" as="sourcePoint" />
            <mxPoint x="350" y="250" as="targetPoint" />
          </mxGeometry>
        </mxCell>
        <mxCell id="07Qvbf6R7t-C7HyKxWoE-6" value="wynik" style="rounded=1;whiteSpace=wrap;html=1;shadow=0;sketch=1;strokeColor=#000000;strokeWidth=1;" vertex="1" parent="WIyWlLk6GJQsqaUBKTNV-1">
          <mxGeometry x="354" y="310" width="120" height="60" as="geometry" />
        </mxCell>
        <mxCell id="07Qvbf6R7t-C7HyKxWoE-7" value="koniec" style="ellipse;whiteSpace=wrap;html=1;shadow=0;sketch=1;strokeColor=#000000;strokeWidth=1;" vertex="1" parent="WIyWlLk6GJQsqaUBKTNV-1">
          <mxGeometry x="354" y="410" width="120" height="80" as="geometry" />
        </mxCell>
        <mxCell id="07Qvbf6R7t-C7HyKxWoE-8" value="" style="endArrow=none;html=1;rounded=0;" edge="1" parent="WIyWlLk6GJQsqaUBKTNV-1" source="07Qvbf6R7t-C7HyKxWoE-6" target="07Qvbf6R7t-C7HyKxWoE-4">
          <mxGeometry width="50" height="50" relative="1" as="geometry">
            <mxPoint x="300" y="360" as="sourcePoint" />
            <mxPoint x="350" y="310" as="targetPoint" />
          </mxGeometry>
        </mxCell>
        <mxCell id="07Qvbf6R7t-C7HyKxWoE-9" value="" style="endArrow=none;html=1;rounded=0;" edge="1" parent="WIyWlLk6GJQsqaUBKTNV-1" source="07Qvbf6R7t-C7HyKxWoE-7" target="07Qvbf6R7t-C7HyKxWoE-6">
          <mxGeometry width="50" height="50" relative="1" as="geometry">
            <mxPoint x="300" y="360" as="sourcePoint" />
            <mxPoint x="350" y="310" as="targetPoint" />
          </mxGeometry>
        </mxCell>
      </root>
    </mxGraphModel>
  </diagram>
</mxfile>
